<svg xmlns="http://www.w3.org/2000/svg" viewBox="0 0 141.36 366.01"><g id="图层_2" data-name="图层 2"><g id="图层_1-2" data-name="图层 1"><path d="M92.83,283.31c1.56-.48,3.11-1.27,4.69-1.33a3.91,3.91,0,0,1,3.08,1.55c.36.65-.39,2.19-1,3.09-2.59,3.71-5.33,7.33-8,11a16.85,16.85,0,0,0-1.12,2.48,32.33,32.33,0,0,1,5.29-1.49,26.18,26.18,0,0,1,7.13.06c1.13.2,2.34,1.57,3,2.71,1,1.93.45,3.12-1.74,3.61-4.1.91-6.4,3.69-8.3,7.14a43,43,0,0,1-9,11.34c-3.42,3.09-6.33,6.74-9.61,10-4.54,4.54-10.38,7-16,9.83s-11,5.69-16.38,8.75c-2.27,1.29-4.33,1.95-6.87.87-4.59-2-9.09-1.23-13.77.17-7.09,2.13-12.94,6.22-18.84,10.39A37.25,37.25,0,0,1,.47,366L0,365.46c.39-.85.75-1.72,1.18-2.55,3.87-7.45,10.85-11.18,17.75-15.13,5.71-3.27,12-4.67,18.14-6.62,6.35-2,12.82-3.67,19.07-5.93,7.76-2.8,15.78-5,22.94-9.29A27.41,27.41,0,0,0,90.21,312.5c.74-1.75,1.65-3.43,2.49-5.13,1.49-3,1.44-3.12-1.75-3.88-2.94-.7-3.83-2.7-2.3-5.24.46-.77,1-1.47,1.51-2.25,1.58-2.68,3.1-5.39,4.67-8.07,1.36-2.33.13-3.43-2.16-4.05Z"/><path d="M116.62,44.85c-1.48-.36-3-.63-4.42-1.08-6.86-2.14-12.35-.44-16.8,5.22A14.09,14.09,0,0,1,93,51.44a6.76,6.76,0,0,1-8.55-.06c-2-1.66-1.69-3.71-.63-7.19s4.18-5,7-6.54c4.55-2.57,9.25-4.87,14-7.13,2.86-1.37,4-3.34,4-7.12,0-6.77.17-13.54.28-20.31a5.13,5.13,0,0,1,.26-1.8c.2-.51.63-1.23,1-1.28a2,2,0,0,1,1.73.66,23.72,23.72,0,0,1,2.19,5.4c.82,3.85.94,7.89,2,11.64,1.42,4.85,3.62,9.47,5.28,14.25,1,2.81,2.3,5.61.83,8.79C121.24,43.33,119.46,44.77,116.62,44.85Z"/><path d="M122.83,61.26c.29.85.55,1.22.5,1.53-.83,4.93,1.74,9.15,2.78,13.69a5.59,5.59,0,0,1,.15,2.65,11.18,11.18,0,0,0,1.51,9.18,12.19,12.19,0,0,0,3.38,3c1.76,1.3,3.7,2.36,5.39,3.74a2.42,2.42,0,0,1,.38,2.33,7.14,7.14,0,0,1-2.39,1.8c-.14.09-.44,0-.66-.07-3.55-.64-9.89-7.74-10.68-11.25s-.45-6.75-.58-10.14-1.33-6.67-1.82-10C120.48,65.51,120.52,63.23,122.83,61.26Z"/><path d="M61,146.88c2.68,1.13,5.66,2.18,8.42,3.64,1.49.79,2.53,2.34,1.26,4.22-1.4,2.07-3.62,2.68-5.49,1.35a69.26,69.26,0,0,1-6.26-4.9,9.58,9.58,0,0,1-1.52-2.79Z"/><path d="M60.18,161a60.94,60.94,0,0,1,7.06,4.15c2.12,1.63,2.45,4.62,1.18,5.85s-4.29.93-6-.88a49.87,49.87,0,0,1-4.6-5.92,2.42,2.42,0,0,1-.19-2.1C57.92,161.57,58.88,161.48,60.18,161Z"/><path d="M138.72,207.94c1-1.23,1.76-2.58,2.64-3.88l-.59-.75c-1.06.17-2.35,0-3.14.55-3.69,2.63-7.84,5-10.72,8.34-4.54,5.31-10.47,8.28-16.43,11.11-3.34,1.58-7.64,1-10.93,3.83a45,45,0,0,1-.25-8c.27-3.61,1-7.19,1.12-10.79.06-2-1-4.11-1.12-6.18-.25-7.6-1.11-15.2.23-22.79.42-2.37-.73-4.13-2.85-5.24-.94-.49-1.87-1-2.85-1.42-1.78-.74-3-1.62-1.37-3.66.87-1.12,1.6-2.36,2.41-3.54,1.63-2.33,3.4-4.58,4.86-7,1.36-2.26,1-3.64-1.21-5.25a6.73,6.73,0,0,0-2-.67,5.1,5.1,0,0,0-.48,1.64,10.51,10.51,0,0,1-3.19,7.8c-1.54,1.68-3,3.44-4.43,5.2-2.19,2.69-2.65,7.09-1,9.49a1.3,1.3,0,0,0,.44,0c.43-.17.85-.35,1.26-.55,3.16-1.61,4.9-.76,5,2.8a82.06,82.06,0,0,1-.65,10c-.06.51-1.24,1.42-1.65,1.29-4.58-1.4-7.41,1.06-10.31,4.07-4.86,5-8.65,10.45-8.36,17.84a10.71,10.71,0,0,1-.26,1.57c-.56,5.06-1.25,10.1-1.6,15.17-.18,2.63,1.94,3.77,4.3,2.76,3.7-1.58,7.39-3.08,9.76-6.67a11.39,11.39,0,0,1,2.91-2.55c1.66-1.21,3.39-2.33,5.4-3.69a17.53,17.53,0,0,1,.36,2.05,13.08,13.08,0,0,1-3.39,9.13,45.09,45.09,0,0,0-4.24,6.72,3.86,3.86,0,0,0-.48,2.61,9.83,9.83,0,0,0,1.7,2.63A28.34,28.34,0,0,0,90.29,240a19.42,19.42,0,0,0,1.95-2.19c.61.85,1.62,1.66,1.73,2.58.24,1.93-.12,3.94,0,5.9.18,2.87-1.3,4.86-3,6.85a27.71,27.71,0,0,0-3.48,4.75,19.86,19.86,0,0,0-1.26,4.22,24.77,24.77,0,0,0,4.5.53c2.94-.15,4.68,1.88,3.51,4.64-2,4.74-4.22,9.39-6.34,14.08-.18.4-.34.8-.79,1.85a12.25,12.25,0,0,0,2.6-.81c5.2-3.36,8-8.45,9.69-14.16a6.19,6.19,0,0,0-3.33-7.7c-3.06-1.42-3.38-2.33-1.07-4.81a14.93,14.93,0,0,0,4.3-11.12A6,6,0,0,1,99.4,243c1-3.69-.8-6.13-4.67-7.71a13.77,13.77,0,0,1-2.19-1.44l.29-.79c1.49,0,3.12.39,4.4-.12,1.09-.44,1.77-1.9,2.66-3a13.09,13.09,0,0,0,11.4,5.35c1,0,2,.05,3,.07,7.54.13,13.39-3.15,18.08-8.85a4.41,4.41,0,0,0,.45-5.28,5.73,5.73,0,0,1,.25-6.29C134.84,212.56,136.87,210.31,138.72,207.94Zm-47.28,5.35c-2.19,1.86-4.53,3.55-6.84,5.26a14.83,14.83,0,0,1-2.31,1c1.13-6.45-1.74-12.68,2-18.42.82-1.27.86-3,1.61-4.37.88-1.59,2.29-1.54,3.12.07a24.61,24.61,0,0,1,1.19,3.88,54.83,54.83,0,0,0,2.16,6.37C93.45,209.53,93.41,211.62,91.44,213.29Z"/><path d="M119.11,64.3c-.53.29-1.07.54-1.58.86-3.85,2.4-7.57,5.06-11.59,7.11-2.59,1.33-5.62,2.35-8.06-.93-.71-.94-2.16-1.34-3.27-2L92.33,68l-.67-1a22.07,22.07,0,0,0,3.53-2.52,43,43,0,0,0,4.44-5.44c1.41-2.05,1-3.41-1.17-4.66-1.42-.84-2.14-.6-2.57,1.12a9.17,9.17,0,0,1-1.79,3.55,45.71,45.71,0,0,1-4.5,4.52,10.68,10.68,0,0,0-3.67,7.59c-.13,2.46,1.16,3.13,3.46,2.36,1.25-.42,3.34-.53,4.06.2,1.29,1.29.51,3-.7,4.43a90,90,0,0,0-6,8.28c-.52.81-.75,2.46-.28,3s2,.47,3.06.64c1.35.2,3,0,4,.68,1.4,1,1.25,2.81.42,4.38a3.46,3.46,0,0,0-.34,1.09c-.22,1.7-.91,2.32-2.78,1.8a7.18,7.18,0,0,0-7.62,2.41,83.41,83.41,0,0,0-6.13,7A16.36,16.36,0,0,0,73.9,114c-1.18,7.34-1.91,14.75-2.76,22.15-.25,2.18,1.29,4.33,2.89,3.74,3.21-1.17,6.89-1.61,9.19-4.63,2.7-3.58,6.37-5.92,10.46-8.54,0,2.91-.16,5.24,0,7.55a15.73,15.73,0,0,1-3.85,12,28.3,28.3,0,0,0-4,7.56c-.45,1.09-.61,3,1.41,3.24,1.76.24,2.75-.63,3.2-2.46.61-2.47.87-5.14,3.14-6.91,4.16-3.25,5.88-7.59,5.62-12.8a30,30,0,0,1,0-4.34c.3-3.09.93-6.15,1.1-9.23a52.27,52.27,0,0,0-.43-7.17c-.06-.75-.51-1.47-.51-2.2,0-5.7-.08-11.4.15-17.09.16-3.83-.65-5.51-4-7.35-.8-.43-1.74-1.75-1.6-2.44a3.14,3.14,0,0,1,2.31-1.86c2-.15,2.91-.9,2.83-3,0-1.31.66-1.84,2.06-1.67a9.28,9.28,0,0,0,7.25-2,77.82,77.82,0,0,0,6.87-5.62,49.6,49.6,0,0,0,4.46-6.18ZM92,120.46a99.69,99.69,0,0,1-8.36,6.63c-.2.15-.58.06-1.22.11.69-6.34-1.6-12.69,1.94-18.52.67-1.12.68-2.64,1.35-3.77,1.13-1.87,2.57-1.65,3.48.37.09.21.13.44.21.65,1.14,3.5,2.44,7,3.33,10.52C93.06,117.69,92.84,119.69,92,120.46Z"/></g></g></svg>